<svg width="24" height="24" viewBox="0 0 24 24" fill="none" xmlns="http://www.w3.org/2000/svg">
<path d="M9.46992 15.28C9.27992 15.28 9.08992 15.21 8.93992 15.06C8.11992 14.24 7.66992 13.15 7.66992 12C7.66992 9.60998 9.60992 7.66998 11.9999 7.66998C13.1499 7.66998 14.2399 8.11998 15.0599 8.93998C15.1999 9.07998 15.2799 9.26998 15.2799 9.46998C15.2799 9.66998 15.1999 9.85998 15.0599 9.99998L9.99992 15.06C9.84992 15.21 9.65992 15.28 9.46992 15.28ZM11.9999 9.16998C10.4399 9.16998 9.16992 10.44 9.16992 12C9.16992 12.5 9.29992 12.98 9.53992 13.4L13.3999 9.53998C12.9799 9.29998 12.4999 9.16998 11.9999 9.16998Z" fill="#56687A"/>
<path d="M5.59984 18.51C5.42984 18.51 5.24984 18.45 5.10984 18.33C4.03984 17.42 3.07984 16.3 2.25984 15C1.19984 13.35 1.19984 10.66 2.25984 8.99998C4.69984 5.17998 8.24984 2.97998 11.9998 2.97998C14.1998 2.97998 16.3698 3.73998 18.2698 5.16998C18.5998 5.41998 18.6698 5.88998 18.4198 6.21998C18.1698 6.54998 17.6998 6.61998 17.3698 6.36998C15.7298 5.12998 13.8698 4.47998 11.9998 4.47998C8.76984 4.47998 5.67984 6.41998 3.51984 9.80998C2.76984 10.98 2.76984 13.02 3.51984 14.19C4.26984 15.36 5.12984 16.37 6.07984 17.19C6.38984 17.46 6.42984 17.93 6.15984 18.25C6.01984 18.42 5.80984 18.51 5.59984 18.51Z" fill="#56687A"/>
<path d="M8.31409 19.7592L8.31524 19.7597C9.50551 20.2643 10.7393 20.52 12.0001 20.52C15.5413 20.52 18.9479 18.4424 21.3187 14.7309L8.31409 19.7592ZM8.31409 19.7592C8.18782 19.706 8.12837 19.5587 8.18088 19.434C8.23398 19.3079 8.38092 19.2485 8.50554 19.3006C9.62505 19.7757 10.8011 20.02 11.9901 20.02C15.4333 20.02 18.6651 17.953 20.8914 14.4593C21.3315 13.7723 21.5326 12.8687 21.5326 12C21.5326 11.1317 21.3317 10.2284 20.8919 9.54154C20.5713 9.03489 20.2199 8.54911 19.8477 8.09418C19.7669 7.99418 19.7734 7.83577 19.8889 7.73522C19.9974 7.65002 20.1502 7.66367 20.2427 7.7761C20.6215 8.24248 20.9892 8.74591 21.3169 9.26641L21.3169 9.26642M8.31409 19.7592L21.3169 9.26642M21.3169 9.26642L21.3194 9.27025M21.3169 9.26642L21.3194 9.27025M21.3194 9.27025C21.7864 9.99725 22.0351 10.9828 22.0351 11.9962M21.3194 9.27025L22.0351 11.9962M22.0351 11.9962C22.0351 13.0095 21.7865 13.9982 21.3187 14.7308L22.0351 11.9962Z" fill="#56687A" stroke="#56687A"/>
<path d="M12.6901 16.27C12.3401 16.27 12.0201 16.02 11.9501 15.66C11.8701 15.25 12.1401 14.86 12.5501 14.79C13.6501 14.59 14.5701 13.67 14.7701 12.57C14.8501 12.16 15.2401 11.9 15.6501 11.97C16.0601 12.05 16.3301 12.44 16.2501 12.85C15.9301 14.58 14.5501 15.95 12.8301 16.27C12.7801 16.26 12.7401 16.27 12.6901 16.27Z" fill="#56687A"/>
<path d="M1.99994 22.75C1.80994 22.75 1.61994 22.68 1.46994 22.53C1.17994 22.24 1.17994 21.76 1.46994 21.47L8.93994 14C9.22994 13.71 9.70994 13.71 9.99994 14C10.2899 14.29 10.2899 14.77 9.99994 15.06L2.52994 22.53C2.37994 22.68 2.18994 22.75 1.99994 22.75Z" fill="#56687A"/>
<path d="M14.5302 10.22C14.3402 10.22 14.1502 10.15 14.0002 10C13.7102 9.71 13.7102 9.23 14.0002 8.94L21.4702 1.47C21.7602 1.18 22.2402 1.18 22.5302 1.47C22.8202 1.76 22.8202 2.24 22.5302 2.53L15.0602 10C14.9102 10.15 14.7202 10.22 14.5302 10.22Z" fill="#56687A"/>
</svg>
