<svg width="24" height="24" viewBox="0 0 24 24" fill="none" xmlns="http://www.w3.org/2000/svg">
<path d="M6.51996 15.7599C6.45541 15.7599 6.3948 15.7376 6.34351 15.6863C6.24878 15.5916 6.24878 15.4282 6.34351 15.3335L9.39351 12.2835C9.48825 12.1887 9.65167 12.1887 9.74641 12.2835C9.84115 12.3782 9.84115 12.5416 9.74641 12.6363L6.70373 15.679C6.63748 15.7387 6.56857 15.7599 6.51996 15.7599Z" fill="white" stroke="white"/>
<path d="M9.60023 15.7902C9.53569 15.7902 9.47508 15.7679 9.42379 15.7166L6.37379 12.6666C6.27905 12.5719 6.27905 12.4085 6.37379 12.3137C6.46853 12.219 6.63194 12.219 6.72668 12.3137L9.77668 15.3637C9.87142 15.4585 9.87142 15.6219 9.77668 15.7166C9.72539 15.7679 9.66478 15.7902 9.60023 15.7902Z" fill="white" stroke="white"/>
<path d="M13.5398 14.5C13.2594 14.5 13.0298 14.2674 13.0298 14C13.0298 13.7196 13.2525 13.5 13.5198 13.5H13.5398C13.8136 13.5 14.0398 13.7261 14.0398 14C14.0398 14.2771 13.8204 14.5 13.5398 14.5Z" fill="white" stroke="white"/>
<path d="M17.4802 14.5C17.1999 14.5 16.9702 14.2674 16.9702 14C16.9702 13.7196 17.1929 13.5 17.4602 13.5H17.4802C17.7541 13.5 17.9802 13.7261 17.9802 14C17.9802 14.2739 17.7541 14.5 17.4802 14.5Z" fill="white" stroke="white"/>
<path d="M15.5 16.47C15.2196 16.47 15 16.2473 15 15.98V15.96C15 15.6861 15.2261 15.46 15.5 15.46C15.7739 15.46 16 15.6861 16 15.96C16 16.2436 15.7742 16.47 15.5 16.47Z" fill="white" stroke="white"/>
<path d="M15.5 13.03C14.95 13.03 14.5 12.59 14.5 12.04V12.02C14.5 11.47 14.95 11.02 15.5 11.02C16.05 11.02 16.5 11.47 16.5 12.02C16.5 12.57 16.06 13.03 15.5 13.03Z" fill="white"/>
<path d="M15 22.75H9C3.57 22.75 1.25 20.43 1.25 15V13C1.25 7.57 3.57 5.25 9 5.25H15C20.43 5.25 22.75 7.57 22.75 13V15C22.75 20.43 20.43 22.75 15 22.75ZM9 6.75C4.39 6.75 2.75 8.39 2.75 13V15C2.75 19.61 4.39 21.25 9 21.25H15C19.61 21.25 21.25 19.61 21.25 15V13C21.25 8.39 19.61 6.75 15 6.75H9Z" fill="white"/>
<path d="M12.9902 6.75H11.9902C11.0302 6.75 10.2402 5.96 10.2402 5C10.2402 4.04 11.0202 3.25 11.9802 3.25C12.1402 3.25 12.2502 3.14 12.2602 3L12.2702 1.99C12.2802 1.58 12.6102 1.25 13.0202 1.25H13.0302C13.4402 1.26 13.7802 1.6 13.7702 2.01L13.7602 3.02C13.7502 3.97 12.9602 4.75 12.0102 4.75C11.8502 4.75 11.7502 4.86 11.7502 5C11.7502 5.14 11.8602 5.25 12.0002 5.25H13.0002C13.4102 5.25 13.7502 5.59 13.7502 6C13.7502 6.41 13.4002 6.75 12.9902 6.75Z" fill="white"/>
</svg>
