<svg width="24" height="25" viewBox="0 0 24 25" fill="none" xmlns="http://www.w3.org/2000/svg">
<path d="M3.78267 7.74557L3.78268 7.74557L9.17253 3.54569C9.17258 3.54565 9.17263 3.54561 9.17267 3.54557C9.82008 3.04078 10.6736 2.79439 11.5054 2.77634C12.3374 2.75828 13.2026 2.96742 13.8769 3.44048L3.78267 7.74557ZM3.78267 7.74557L3.78036 7.74739C3.3487 8.08785 2.97237 8.61409 2.7052 9.15656C2.43834 9.69841 2.25 10.3182 2.25 10.87V18.28C2.25 20.4642 4.02198 22.25 6.21 22.25H17.79C19.9761 22.25 21.75 20.4761 21.75 18.29V11.01C21.75 10.4246 21.5446 9.77175 21.2496 9.20623C20.9553 8.64216 20.5383 8.10039 20.0547 7.76895L13.8772 3.4407L3.78267 7.74557ZM3.47697 7.35465L3.47732 7.35437L8.86697 3.15465C8.86707 3.15457 8.86718 3.15449 8.86728 3.15441C8.86729 3.1544 8.86731 3.15439 8.86733 3.15437C10.3134 2.02992 12.662 1.97512 14.1626 3.02913L14.1631 3.02947L20.3431 7.35947L20.344 7.36007C20.8581 7.71864 21.3396 8.30219 21.6931 8.97894C22.0465 9.65572 22.25 10.3839 22.25 11.01V18.29C22.25 20.7445 20.2532 22.75 17.79 22.75H6.21C3.74745 22.75 1.75 20.7451 1.75 18.28V10.87C1.75 10.2845 1.93347 9.59265 2.2538 8.94038C2.57405 8.28827 3.01069 7.71731 3.47697 7.35465Z" fill="#292D32" stroke="#56687A"/>
<path d="M12 18.75C11.8661 18.75 11.75 18.6339 11.75 18.5V15.5C11.75 15.3661 11.8661 15.25 12 15.25C12.1339 15.25 12.25 15.3661 12.25 15.5V18.5C12.25 18.6339 12.1339 18.75 12 18.75Z" fill="#56687A" stroke="#56687A"/>
</svg>
