<svg width="16" height="16" viewBox="0 0 16 16" fill="none" xmlns="http://www.w3.org/2000/svg">
<path d="M12.6602 5.99422C12.6672 3.42313 10.5753 1.3335 8.00016 1.3335C10.5707 1.3335 12.6668 3.42964 12.6668 6.00016C12.6668 6.92778 12.3962 7.82425 11.8848 8.59519C11.143 9.69173 9.98026 10.4198 8.69288 10.6123L8.69287 10.6122L8.68235 10.614C8.48173 10.6484 8.24385 10.6668 8.00016 10.6668C7.75757 10.6668 7.52191 10.6486 7.30408 10.6084L7.29499 10.6068L7.28584 10.6054C6.22106 10.4497 5.23228 9.91015 4.50673 9.09789C5.23025 9.90478 6.21317 10.4428 7.2885 10.6007C7.76293 10.6815 8.23693 10.683 8.68795 10.6003C9.99345 10.4108 11.1456 9.6714 11.8807 8.58744L11.8829 8.58417C12.3919 7.82066 12.66 6.92409 12.6602 5.99422ZM12.6602 5.99422C12.6602 5.99446 12.6602 5.9947 12.6602 5.99494L12.1602 5.99349H12.6602C12.6602 5.99373 12.6602 5.99397 12.6602 5.99422Z" stroke="#0E2741"/>
<path d="M4.11689 8.58437L4.5267 8.30649L4.11405 8.58882C4.11368 8.58828 4.11333 8.58778 4.11298 8.58732L1.51359 11.1867C1.44743 11.2529 1.39699 11.3312 1.36376 11.416C1.39398 11.3406 1.44156 11.2645 1.51315 11.1929L3.70649 8.9996L4.08828 8.6178L4.43967 9.02775C5.12697 9.82961 6.06712 10.3774 7.08865 10.5756L7.92902 10.7388L4.11689 8.58437ZM4.11689 8.58437C4.11674 8.58439 4.11565 8.58475 4.11395 8.58636M4.11689 8.58437C4.1169 8.58436 4.11691 8.58436 4.11691 8.58436C4.11691 8.58437 4.1169 8.58437 4.11687 8.58438L4.11395 8.58636M4.11395 8.58636L4.11353 8.58664L4.11288 8.58709C4.11292 8.58716 4.11297 8.58722 4.11301 8.58729L4.11359 8.58671C4.11372 8.58659 4.11383 8.58647 4.11395 8.58636ZM1.34169 11.8456C1.31255 11.741 1.30952 11.6327 1.33033 11.5296C1.30578 11.6556 1.32244 11.7722 1.34673 11.8534C1.36173 11.9059 1.38722 11.9677 1.42596 12.0291C1.38863 11.9732 1.36005 11.9115 1.34169 11.8456ZM3.33783 12.8554C3.28756 12.7782 3.2228 12.7148 3.15051 12.666C3.22549 12.7155 3.28915 12.7799 3.33783 12.8554Z" stroke="#0E2741"/>
<path d="M8.25718 7.59142L8.19725 7.55546C8.20656 7.55988 8.21556 7.56467 8.22419 7.5698L8.22666 7.57126L8.75999 7.8846L9.02397 8.03968C8.98343 8.02249 8.93872 8.00004 8.88956 7.97085C8.8893 7.9707 8.88905 7.97055 8.8888 7.9704L8.25718 7.59142ZM7.01096 4.97618C6.97632 4.99409 6.94094 5.00712 6.90745 5.01311L6.3327 5.099L6.09744 5.13415C6.12669 5.1262 6.15844 5.11933 6.19288 5.11378L6.19288 5.11379L6.19621 5.11323L6.90954 4.99324L7.01096 4.97618ZM9.78766 5.1185L9.81499 5.12181C9.83193 5.12475 9.84823 5.12804 9.86391 5.13165L9.78766 5.1185ZM8.54441 4.30049L8.44531 4.10626L8.33958 3.89902C8.35487 3.92376 8.36988 3.95089 8.38449 3.98062L8.38448 3.98063L8.38605 3.98378L8.54441 4.30049ZM7.61675 3.97144C7.63052 3.94495 7.64447 3.9206 7.65855 3.89823L7.56383 4.08766L7.61675 3.97144ZM6.62689 6.80697L6.63949 6.75288C6.63874 6.77205 6.63653 6.79044 6.63276 6.80761L6.5068 7.33795L6.45103 7.57276C6.45521 7.54773 6.46047 7.52127 6.46696 7.49332L6.62689 6.80697Z" stroke="#0E2741"/>
</svg>
