<svg width="43" height="42" viewBox="0 0 43 42" fill="none" xmlns="http://www.w3.org/2000/svg">
<rect x="1.18213" y="0.5" width="41" height="41" rx="5.5" fill="#FDF4FF" stroke="#EEAAFD"/>
<path d="M34.9998 22.0653C34.9998 20.8177 34.476 19.6289 33.5757 18.7815C34.0916 18.0321 34.3705 17.1454 34.3705 16.2297C34.3705 14.1699 32.9475 12.3739 30.9895 11.867C30.7712 9.58217 28.8402 7.78935 26.4989 7.78935C24.9396 7.78906 22.963 7.79081 21.9993 9.303C21.0359 7.79081 19.0598 7.78906 17.5011 7.78906C15.1598 7.78906 13.2292 9.58217 13.0105 11.8667C11.0522 12.3742 9.62872 14.1702 9.62872 16.2294C9.62872 17.1446 9.9076 18.0315 10.4238 18.7812C9.52316 19.6283 9 20.8174 9 22.065C9 23.8226 10.0251 25.4081 11.594 26.1456C11.5885 26.2302 11.5858 26.3125 11.5858 26.3939C11.5858 27.905 12.3507 29.3168 13.6008 30.1488C13.887 32.3772 15.7935 34.0808 18.0699 34.0808C19.7549 34.0808 21.2249 33.1502 21.999 31.7773C22.774 33.1502 24.2443 34.0808 25.9301 34.0808C28.2062 34.0808 30.1128 32.377 30.3992 30.1485C31.6488 29.3156 32.4136 27.9038 32.4136 26.3939C32.4136 26.3125 32.411 26.2302 32.4058 26.1456C33.9747 25.409 34.9998 23.8229 34.9998 22.0653ZM31.588 25.2252C31.3231 25.3174 31.1617 25.5858 31.2047 25.8629C31.2361 26.0665 31.2507 26.2351 31.2507 26.3942C31.2507 27.5912 30.6025 28.705 29.5594 29.3014C29.389 29.3988 29.279 29.5756 29.2674 29.7716C29.1618 31.5357 27.6962 32.9179 25.9304 32.9179C24.0832 32.9179 22.5806 31.4158 22.5806 29.5692C22.5806 29.2482 22.3201 28.9876 21.999 28.9876C21.678 28.9876 21.4174 29.2482 21.4174 29.5692C21.4174 31.4158 19.9157 32.9179 18.0699 32.9179C16.3042 32.9179 14.8385 31.5357 14.7332 29.7716C14.7213 29.5753 14.6117 29.3985 14.4407 29.3011C13.3973 28.7061 12.7491 27.592 12.7491 26.3942C12.7491 26.2354 12.7639 26.0671 12.7956 25.8647C12.8392 25.5869 12.6781 25.3177 12.4126 25.2252C11.067 24.7564 10.1632 23.4865 10.1632 22.0653C10.1632 20.9887 10.6893 19.9703 11.5704 19.3416C11.7057 19.2451 11.7932 19.0956 11.8109 18.9304C11.829 18.7655 11.7752 18.6006 11.6638 18.4776C11.1017 17.857 10.7919 17.0585 10.7919 16.2297C10.7919 14.58 12.0235 13.1579 13.657 12.9218C13.9431 12.8805 14.1554 12.6353 14.1554 12.3463C14.1554 12.3248 14.1545 12.3047 14.1534 12.3C14.1534 10.4543 15.6554 8.95258 17.5014 8.95258C19.9296 8.95258 21.4177 9.08635 21.4177 11.724C21.4177 12.045 21.6782 12.3056 21.9993 12.3056C22.3203 12.3056 22.5809 12.045 22.5809 11.724C22.5809 9.08635 24.0698 8.95258 26.4992 8.95258C28.3455 8.95258 29.8476 10.4543 29.8476 12.2904C29.847 12.3015 29.8458 12.3355 29.8458 12.3463C29.8458 12.6353 30.0581 12.8805 30.3442 12.9218C31.9765 13.1576 33.2078 14.5797 33.2078 16.2297C33.2078 17.0594 32.8984 17.8576 32.3363 18.4776C32.2246 18.6006 32.1711 18.7655 32.1888 18.9307C32.2066 19.0956 32.2938 19.2453 32.429 19.3419C33.3108 19.9712 33.8371 20.9893 33.8371 22.0656C33.8365 23.4862 32.933 24.7564 31.588 25.2252Z" fill="#D750F2"/>
<path d="M28.9073 15.2068C28.9073 13.7956 27.7592 12.6475 26.3479 12.6475C24.9364 12.6475 23.7883 13.7956 23.7883 15.2068C23.7883 15.8117 24.0003 16.3672 24.3521 16.8054C24.2495 19.8818 21.889 22.3662 18.9394 22.527C18.4721 21.9058 17.7311 21.5019 16.8956 21.5019C16.5623 21.5019 16.2451 21.5679 15.9531 21.6839C15.3543 20.7551 15.498 19.5776 15.8423 18.7869C16.0819 18.2365 16.389 17.9221 16.599 17.813C17.0183 18.1134 17.5304 18.2923 18.0841 18.2923C19.4957 18.2923 20.6438 17.1442 20.6438 15.7329C20.6438 14.3216 19.4957 13.1735 18.0841 13.1735C16.6729 13.1735 15.5247 14.3216 15.5247 15.7329C15.5247 16.1668 15.6338 16.5751 15.8252 16.9334C15.4154 17.2274 15.0452 17.7037 14.7756 18.3222C14.3048 19.4035 14.1271 21.0328 14.9987 22.349C14.5884 22.8033 14.3359 23.4023 14.3359 24.0613C14.3359 25.4726 15.484 26.6207 16.8956 26.6207C18.3069 26.6207 19.455 25.4726 19.455 24.0613C19.455 23.924 19.441 23.7903 19.4201 23.6591C22.5303 23.2944 25.0175 20.7851 25.4552 17.6028C25.7335 17.7069 26.0333 17.7665 26.3474 17.7665C26.5666 17.7665 26.778 17.736 26.9816 17.6836C27.9282 20.0156 27.4452 21.7665 27.1776 22.4392C26.9717 22.9571 26.735 23.2651 26.5841 23.4032C26.2092 23.188 25.7762 23.0627 25.3138 23.0627C23.9023 23.0627 22.7542 24.2108 22.7542 25.6223C22.7542 27.0336 23.9023 28.1817 25.3138 28.1817C26.7251 28.1817 27.8732 27.0336 27.8732 25.6223C27.8732 25.0936 27.7118 24.6016 27.4361 24.1933C27.5859 24.045 27.731 23.8644 27.8671 23.6481C28.6817 22.3566 29.1717 19.915 28.0148 17.1448C28.5604 16.6748 28.9073 15.981 28.9073 15.2068ZM18.0844 14.3362C18.8542 14.3362 19.4809 14.9626 19.4809 15.7323C19.4809 16.5021 18.8545 17.1285 18.0844 17.1285C17.3147 17.1285 16.6883 16.5021 16.6883 15.7323C16.6883 14.9626 17.3147 14.3362 18.0844 14.3362ZM16.8959 25.4572C16.1261 25.4572 15.4994 24.831 15.4994 24.061C15.4994 23.2909 16.1258 22.6648 16.8959 22.6648C17.6657 22.6648 18.2921 23.2909 18.2921 24.061C18.2921 24.831 17.6657 25.4572 16.8959 25.4572ZM25.3141 27.0182C24.5444 27.0182 23.9177 26.3921 23.9177 25.622C23.9177 24.852 24.5441 24.2256 25.3141 24.2256C26.0842 24.2256 26.7103 24.852 26.7103 25.622C26.7103 26.3921 26.0842 27.0182 25.3141 27.0182ZM24.9515 15.2068C24.9515 14.4371 25.5779 13.8107 26.3479 13.8107C27.118 13.8107 27.7441 14.4371 27.7441 15.2068C27.7441 15.9766 27.118 16.603 26.3479 16.603C25.5779 16.603 24.9515 15.9766 24.9515 15.2068Z" fill="#D750F2"/>
</svg>
