<svg width="24" height="25" viewBox="0 0 24 25" fill="none" xmlns="http://www.w3.org/2000/svg">
<path d="M17.8096 7.40937L18.0285 7.41821L18.0377 7.409C19.2784 7.34392 20.2272 6.32032 20.2398 5.08487L20.2398 5.08488V5.07977C20.2398 3.79186 19.1942 2.74977 17.8998 2.74977C16.6137 2.74977 15.5698 3.79363 15.5698 5.07977C15.5698 6.33881 16.5523 7.35857 17.8096 7.40937ZM17.9998 7.90977H17.9996H17.9995H17.9993H17.9991H17.9989H17.9988H17.9986H17.9984H17.9983H17.9981H17.9979H17.9977H17.9976H17.9974H17.9972H17.997H17.9969H17.9967H17.9965H17.9964H17.9962H17.996H17.9958H17.9957H17.9955H17.9953H17.9952H17.995H17.9948H17.9947H17.9945H17.9943H17.9941H17.994H17.9938H17.9936H17.9935H17.9933H17.9931H17.993H17.9928H17.9926H17.9925H17.9923H17.9921H17.992H17.9918H17.9916H17.9915H17.9913H17.9911H17.991H17.9908H17.9906H17.9905H17.9903H17.9901H17.99H17.9898H17.9897H17.9895H17.9893H17.9892H17.989H17.9888H17.9887H17.9885H17.9884H17.9882H17.988H17.9879H17.9877H17.9875H17.9874H17.9872H17.9871H17.9869H17.9867H17.9866H17.9864H17.9863H17.9861H17.9859H17.9858H17.9856H17.9855H17.9853H17.9851H17.985H17.9848H17.9847H17.9845H17.9843H17.9842H17.984H17.9839H17.9837H17.9836H17.9834H17.9832H17.9831H17.9829H17.9828H17.9826H17.9825H17.9823H17.9821H17.982H17.9818H17.9817H17.9815H17.9814H17.9812H17.9811H17.9809H17.9807H17.9806H17.9804H17.9803H17.9801H17.98H17.9798H17.9797H17.9795H17.9793H17.9792H17.979H17.9789H17.9787H17.9786H17.9784H17.9783H17.9781H17.978H17.9778H17.9777H17.9775H17.9774H17.9772H17.977H17.9769H17.9767H17.9766H17.9764H17.9763H17.9761H17.976H17.9758H17.9757H17.9755H17.9754H17.9752H17.9751H17.9749H17.9748H17.9746H17.9745H17.9743H17.9742H17.974H17.9739H17.9737H17.9736H17.9734H17.9733H17.9731H17.973H17.9728H17.9727H17.9725H17.9724H17.9722H17.9721H17.9719H17.9718H17.9716H17.9715H17.9713H17.9712H17.971H17.9709H17.9707H17.9706H17.9704H17.9703H17.9701H17.97H17.9698H17.9697H17.9695H17.9694H17.9692H17.9691H17.9689H17.9688H17.9686H17.9685H17.9683H17.9682H17.9681H17.9679H17.9678H17.9676H17.9675H17.9673H17.9672H17.967H17.9669H17.9667H17.9666H17.9664H17.9663H17.9661H17.966H17.9658H17.9657H17.9655H17.9654H17.9653H17.9651H17.965H17.9648H17.9647H17.9645H17.9644H17.9642H17.9641H17.9639H17.9638H17.9636H17.9635H17.9633H17.9632H17.963H17.9629H17.9628H17.9626H17.9625H17.9623H17.9622H17.962H17.9619H17.9617H17.9616H17.9614H17.9613H17.9611H17.961H17.9608H17.9607H17.9606H17.9604H17.9603H17.9601H17.96H17.9598H17.9597H17.9595H17.9594H17.9592H17.9591H17.9589H17.9588H17.9587H17.9585H17.9584H17.9582H17.9581H17.9579H17.9578H17.9576H17.9575H17.9573H17.9572H17.957H17.9569H17.9567H17.9566H17.9565H17.9563H17.9562H17.956H17.9559H17.9557H17.9556H17.9554H17.9553H17.9551H17.955H17.9548H17.9547H17.9545H17.9544H17.9542H17.9541H17.954H17.9538H17.9537H17.9535H17.9534H17.9532H17.9531H17.9529H17.9528H17.9526H17.9525H17.9523H17.9522H17.952H17.9519H17.9517H17.9516H17.9514H17.9513H17.9512H17.951H17.9509H17.9507H17.9506H17.9504H17.9503H17.9501H17.95H17.9498H17.9497H17.9495H17.9494H17.9492H17.9491H17.9489H17.9488H17.9486H17.9485H17.9483H17.9482H17.948H17.9479H17.9477H17.9476H17.9474H17.9473H17.9471H17.947H17.9468H17.9467H17.9465H17.9464H17.9462H17.9461H17.9459H17.9458H17.9456H17.9455H17.9453H17.9452H17.945H17.9449H17.9447H17.9446H17.9444H17.9443H17.9441H17.944H17.9438H17.9437H17.9435H17.9434H17.9432H17.9431H17.9429H17.9428H17.9426H17.9424H17.9423H17.9421H17.942H17.9418H17.9417H17.9415H17.9414H17.9412H17.9411H17.9409H17.9408H17.9406H17.9405H17.9403H17.9401H17.94H17.9398H17.9397H17.9395H17.9394H17.9392H17.9391H17.9389H17.9388H17.9386H17.9384H17.9383H17.9381H17.938H17.9378H17.9377H17.9375H17.9373H17.9372H17.937H17.9369H17.9367H17.9366H17.9364H17.9362H17.9361H17.9359H17.9358H17.9356H17.9355H17.9353H17.9351H17.935H17.9348H17.9347H17.9345H17.9343H17.9342H17.934H17.9339H17.9337H17.9335H17.9334H17.9332H17.9331H17.9329H17.9327H17.9326H17.9324H17.9323H17.9321H17.9319H17.9318H17.9316H17.9315H17.9313H17.9311H17.931H17.9308H17.9306H17.9305H17.9303H17.9302H17.93H17.9298H17.9297H17.9295H17.9293H17.9292H17.929H17.9288H17.9287H17.9285H17.9283H17.9282H17.928H17.9278H17.9277H17.9275H17.9273H17.9272H17.927H17.9268H17.9267H17.9265H17.9263H17.9262H17.926H17.9258H17.9257H17.9255H17.9253H17.9252H17.925H17.9248H17.9247H17.9245H17.9243H17.9241H17.924H17.9238H17.9236H17.9235H17.9233H17.9231H17.923H17.9228H17.9226H17.9224H17.9223H17.9221H17.9219H17.9217H17.9216H17.9214H17.9212H17.921H17.9209H17.9207H17.9205H17.9203H17.9202H17.92H17.9198H17.878C16.2539 7.85443 15.0698 6.60957 15.0698 5.08977C15.0698 3.52689 16.345 2.25977 17.8998 2.25977C19.4532 2.25977 20.7291 3.53516 20.7298 5.08839C20.7208 6.60196 19.5677 7.82081 18.0821 7.91573C18.0727 7.91431 18.0654 7.9135 18.0606 7.91297C18.038 7.91046 18.0199 7.91003 18.0132 7.9099L18.0038 7.90978L17.9998 7.90977Z" fill="#56687A" stroke="#56687A"/>
<path d="M16.9283 15.188L16.9283 15.188L16.9242 15.1873C16.7925 15.1648 16.6983 15.0383 16.7229 14.8943C16.7453 14.7626 16.8719 14.6684 17.0159 14.693L17.1 14.2001L17.0159 14.693C18.3457 14.9201 19.7803 14.6804 20.7763 14.0169C21.3272 13.6532 21.72 13.1279 21.72 12.5101C21.72 11.8842 21.3073 11.3712 20.7794 11.0155L20.7794 11.0155L20.7774 11.0141C19.78 10.3492 18.3235 10.1099 16.9827 10.3478L16.9826 10.3478L16.9742 10.3494C16.8496 10.3737 16.7173 10.2891 16.6929 10.146C16.6683 10.002 16.7625 9.8755 16.8942 9.85302L16.8942 9.85303L16.8976 9.85242C18.4194 9.58167 19.9744 9.8776 21.0521 10.5958C21.826 11.1149 22.22 11.8129 22.22 12.5101C22.22 13.2 21.8334 13.9069 21.0527 14.4341C20.235 14.9725 19.1544 15.2801 18.01 15.2801C17.6457 15.2801 17.2856 15.2521 16.9283 15.188Z" fill="#56687A" stroke="#56687A"/>
<path d="M8.88998 5.08C8.88998 6.48958 7.88888 7.64503 6.54846 7.87161L6.45146 7.52519L5.47215 7.70647L5.48589 7.85377C4.1935 7.58966 3.23822 6.45649 3.22998 5.08861C3.23074 3.52441 4.50756 2.25 6.05998 2.25C7.61384 2.25 8.88998 3.52614 8.88998 5.08ZM6.18874 7.41835L6.20977 7.42186L6.26243 7.41949C7.43144 7.36695 8.40998 6.33537 8.40998 5.09C8.40998 3.80386 7.36613 2.75999 6.07998 2.75999C4.79384 2.75999 3.74998 3.80385 3.74998 5.09C3.74998 6.33913 4.72045 7.34305 5.94911 7.41904L6.17413 7.43296L6.18874 7.41835Z" fill="#56687A" stroke="#56687A"/>
<path d="M5.96 15.7801C4.73 15.7801 3.55 15.4502 2.64 14.8502C1.76 14.2602 1.25 13.4101 1.25 12.5101C1.25 11.6201 1.76 10.7701 2.64 10.1801C3.84 9.38014 5.53 9.07015 7.16 9.36015C7.57 9.43015 7.84 9.82015 7.77 10.2301C7.7 10.6401 7.31 10.9201 6.9 10.8401C5.66 10.6201 4.35 10.8501 3.47 11.4301C3 11.7401 2.75 12.1201 2.75 12.5101C2.75 12.9001 3.01 13.2902 3.47 13.6002C4.34 14.1802 5.64 14.4101 6.87 14.2001C7.28 14.1301 7.67 14.4101 7.74 14.8101C7.81 15.2201 7.54 15.6101 7.13 15.6801C6.74 15.7501 6.35 15.7801 5.96 15.7801Z" fill="#56687A"/>
<path d="M11.9998 15.88C11.9698 15.88 11.9498 15.88 11.9198 15.88H11.8698C9.97982 15.82 8.56982 14.36 8.56982 12.56C8.56982 10.72 10.0698 9.22998 11.8998 9.22998C13.7298 9.22998 15.2298 10.73 15.2298 12.56C15.2198 14.37 13.8098 15.83 12.0098 15.89C12.0098 15.88 12.0098 15.88 11.9998 15.88ZM11.8998 10.72C10.8898 10.72 10.0698 11.54 10.0698 12.55C10.0698 13.54 10.8398 14.34 11.8298 14.38C11.8398 14.37 11.9198 14.37 12.0098 14.38C12.9798 14.33 13.7298 13.53 13.7398 12.55C13.7398 11.55 12.9198 10.72 11.8998 10.72Z" fill="#56687A"/>
<path d="M11.9998 23.2597C10.7998 23.2597 9.59978 22.9497 8.66978 22.3197C7.78978 21.7297 7.27979 20.8897 7.27979 19.9897C7.27979 19.0997 7.77978 18.2397 8.66978 17.6497C10.5398 16.4097 13.4698 16.4097 15.3298 17.6497C16.2098 18.2397 16.7198 19.0797 16.7198 19.9797C16.7198 20.8697 16.2198 21.7297 15.3298 22.3197C14.3998 22.9397 13.1998 23.2597 11.9998 23.2597ZM9.49979 18.9097C9.02979 19.2197 8.77979 19.6097 8.77979 19.9997C8.77979 20.3897 9.03979 20.7697 9.49979 21.0797C10.8498 21.9897 13.1398 21.9897 14.4898 21.0797C14.9598 20.7697 15.2098 20.3797 15.2098 19.9897C15.2098 19.5997 14.9498 19.2197 14.4898 18.9097C13.1498 17.9997 10.8598 18.0097 9.49979 18.9097Z" fill="#56687A"/>
</svg>
