<svg width="24" height="25" viewBox="0 0 24 25" fill="none" xmlns="http://www.w3.org/2000/svg">
<path d="M20.0402 7.32018L14.2802 3.29018C12.7102 2.19018 10.3002 2.25018 8.79023 3.42018L3.78023 7.33018C2.78023 8.11018 1.99023 9.71018 1.99023 10.9702V17.8702C1.99023 20.4202 4.06023 22.5002 6.61023 22.5002H17.3902C19.9402 22.5002 22.0102 20.4302 22.0102 17.8802V11.1002C22.0102 9.75018 21.1402 8.09018 20.0402 7.32018ZM12.7502 18.5002C12.7502 18.9102 12.4102 19.2502 12.0002 19.2502C11.5902 19.2502 11.2502 18.9102 11.2502 18.5002V15.5002C11.2502 15.0902 11.5902 14.7502 12.0002 14.7502C12.4102 14.7502 12.7502 15.0902 12.7502 15.5002V18.5002Z" fill="#DA3B30"/>
</svg>
