<svg width="24" height="25" viewBox="0 0 24 25" fill="none" xmlns="http://www.w3.org/2000/svg">
<path d="M17.53 8.27C17.46 8.26 17.39 8.26 17.32 8.27C15.77 8.22 14.54 6.95 14.54 5.39C14.54 3.8 15.83 2.5 17.43 2.5C19.02 2.5 20.32 3.79 20.32 5.39C20.31 6.95 19.08 8.22 17.53 8.27Z" fill="#DA3B30"/>
<path d="M20.5121 14.7848L20.5119 14.7849C19.6718 15.3475 18.5184 15.6269 17.3659 15.5957C17.6064 14.8892 17.7319 14.1358 17.7401 13.3556L17.7401 13.3556V13.3504C17.7401 12.5328 17.603 11.7414 17.3353 11.0108C18.5036 10.975 19.6562 11.2546 20.5036 11.817L20.5036 11.817L20.5052 11.818C21.1908 12.2693 21.4655 12.8155 21.4663 13.2976C21.4672 13.7802 21.1939 14.3288 20.5121 14.7848Z" fill="#DA3B30" stroke="#DA3B30"/>
<path d="M6.44016 8.27C6.51016 8.26 6.58016 8.26 6.65016 8.27C8.20016 8.22 9.43016 6.95 9.43016 5.39C9.43016 3.79 8.14016 2.5 6.54016 2.5C4.95016 2.5 3.66016 3.79 3.66016 5.39C3.66016 6.95 4.89016 8.22 6.44016 8.27Z" fill="#DA3B30"/>
<path d="M6.55012 13.3506C6.55012 14.3206 6.76012 15.2406 7.14012 16.0706C5.73012 16.2206 4.26012 15.9206 3.18012 15.2106C1.60012 14.1606 1.60012 12.4506 3.18012 11.4006C4.25012 10.6806 5.76012 10.3906 7.18012 10.5506C6.77012 11.3906 6.55012 12.3406 6.55012 13.3506Z" fill="#DA3B30"/>
<path d="M12.1198 16.37C12.0398 16.36 11.9498 16.36 11.8598 16.37C10.0198 16.31 8.5498 14.8 8.5498 12.94C8.5598 11.04 10.0898 9.5 11.9998 9.5C13.8998 9.5 15.4398 11.04 15.4398 12.94C15.4298 14.8 13.9698 16.31 12.1198 16.37Z" fill="#DA3B30"/>
<path d="M8.8698 18.4406C7.3598 19.4506 7.3598 21.1106 8.8698 22.1106C10.5898 23.2606 13.4098 23.2606 15.1298 22.1106C16.6398 21.1006 16.6398 19.4406 15.1298 18.4406C13.4198 17.2906 10.5998 17.2906 8.8698 18.4406Z" fill="#DA3B30"/>
</svg>
