<svg width="24" height="24" viewBox="0 0 24 24" fill="none" xmlns="http://www.w3.org/2000/svg">
<path d="M7.35 6.22021H16.65C19.3239 6.22021 21.5 8.39636 21.5 11.0702V16.6502C21.5 19.3241 19.3239 21.5002 16.65 21.5002H7.35C4.67614 21.5002 2.5 19.3241 2.5 16.6502V11.0702C2.5 8.39636 4.67614 6.22021 7.35 6.22021ZM15.5 10.5202C14.6739 10.5202 14 11.1941 14 12.0202V12.0402C14 12.2448 14.0411 12.4389 14.1153 12.6152C13.938 12.5411 13.7436 12.5002 13.54 12.5002H13.52C12.6873 12.5002 12.03 13.1806 12.03 14.0002C12.03 14.8328 12.7203 15.5002 13.54 15.5002C13.7442 15.5002 13.9378 15.4602 14.1139 15.3877C14.0405 15.5642 14 15.7576 14 15.9602V15.9802C14 16.8129 14.6804 17.4702 15.5 17.4702C16.3458 17.4702 17 16.7766 17 15.9602C17 15.753 16.9576 15.5554 16.8811 15.3756C17.0657 15.4558 17.2685 15.5002 17.48 15.5002C18.3194 15.5002 18.98 14.8231 18.98 14.0002C18.98 13.1741 18.3061 12.5002 17.48 12.5002H17.46C17.2515 12.5002 17.0541 12.5429 16.8751 12.6197C16.9555 12.4349 17 12.2319 17 12.0202C17 11.1941 16.3261 10.5202 15.5 10.5202ZM15.04 14.0002C15.04 13.7927 14.9975 13.5949 14.9208 13.4149C15.0996 13.4893 15.2954 13.5302 15.5 13.5302C15.7103 13.5302 15.9101 13.4862 16.0912 13.4071C16.0131 13.5896 15.97 13.7904 15.97 14.0002C15.97 14.2064 16.0123 14.4025 16.0885 14.5808C15.9077 14.5032 15.7087 14.4602 15.5 14.4602C15.2972 14.4602 15.1035 14.5008 14.9267 14.5744C14.9998 14.3972 15.04 14.2031 15.04 14.0002ZM9.6 16.7902C9.91546 16.7902 10.2348 16.6725 10.4836 16.4238C10.9688 15.9385 10.9688 15.1419 10.4836 14.6567L9.80711 13.9802L10.4436 13.3438C10.9288 12.8585 10.9288 12.0619 10.4436 11.5767C9.95829 11.0914 9.16171 11.0914 8.67645 11.5767L8.04 12.2131L7.43355 11.6067C6.94829 11.1214 6.15171 11.1214 5.66645 11.6067C5.18118 12.0919 5.18118 12.8885 5.66645 13.3738L6.27289 13.9802L5.63645 14.6167C5.15118 15.1019 5.15118 15.8985 5.63645 16.3838C5.88516 16.6325 6.20455 16.7502 6.52 16.7502C6.83545 16.7502 7.15484 16.6325 7.40355 16.3838L8.04 15.7473L8.71645 16.4238C8.96515 16.6725 9.28454 16.7902 9.6 16.7902Z" fill="white" stroke="white"/>
<path d="M12.1211 5.25546C12.0811 5.25847 12.0406 5.26 11.9999 5.26C11.9965 5.26 11.9932 5.26005 11.9899 5.26015V5.22C11.9932 5.22 11.9965 5.22007 11.9999 5.2202C12.0409 5.22185 12.0829 5.23365 12.1211 5.25546ZM11.4701 4.9727C11.3967 5.04608 11.3438 5.13074 11.3095 5.22H10.8923C11.0134 4.72529 11.459 4.36 11.9799 4.36C12.3769 4.36 12.7281 4.06495 12.7299 3.63329L12.7398 2.70037C12.7443 2.58507 12.8393 2.5 12.9399 2.5H12.9499C13.0448 2.5 13.1389 2.57652 13.1399 2.70801L13.1299 3.64432C13.123 4.25175 12.6146 4.76 11.9999 4.76C11.8102 4.76 11.617 4.82574 11.4701 4.9727Z" fill="white" stroke="white"/>
</svg>
